<svg width="121" height="26" viewBox="0 0 121 26" fill="none" xmlns="http://www.w3.org/2000/svg">
<path fill-rule="evenodd" clip-rule="evenodd" d="M8.95227 3.84189C10.041 1.38278 13.959 1.38278 15.0478 3.84189L20.1616 15.392C18.4498 14.7576 16.4468 15.0005 14.9184 16.2005L11.9266 18.5495L11.9023 18.53L10.0167 20.049L9.19411 20.6949C9.07524 20.7882 8.96157 20.8855 8.85316 20.9864L7.21362 22.3072C6.65735 22.7553 6.0094 22.9708 5.36848 22.9971V22.9976H5.27813C2.96933 22.9976 1.38538 20.9324 2.23038 19.0239L8.95227 3.84189ZM22 20.1034C21.9927 21.6367 20.5961 22.9976 18.7219 22.9976H18.4488C17.8037 22.9736 17.151 22.7582 16.5911 22.3072L13.171 19.552L15.9126 17.3995C17.5204 16.1372 19.8754 16.3821 21.1726 17.9465C21.2918 18.0902 21.3978 18.2399 21.491 18.3945L21.7696 19.0239C21.8217 19.1414 21.8645 19.2595 21.8985 19.3776C21.9576 19.6167 21.9913 19.86 22 20.1034Z" fill="#5039D4"/>
<path d="M38.5375 16.9635H33.762L32.9718 19.2482H30.4466L34.7583 7.24064H37.5584L41.8701 19.2482H39.3277L38.5375 16.9635ZM37.8848 15.0395L36.1498 10.0235L34.4148 15.0395H37.8848ZM47.845 11.707H46.1787V19.2482H43.7394V11.707H42.6572V9.73147H43.7394V9.25048C43.7394 8.08237 44.0715 7.22346 44.7358 6.67376C45.4 6.12406 46.402 5.86639 47.7419 5.90074V7.92777C47.1579 7.91631 46.7513 8.01366 46.5223 8.21979C46.2933 8.42593 46.1787 8.79813 46.1787 9.33637V9.73147H47.845V11.707ZM52.2036 11.707V16.3107C52.2036 16.6314 52.278 16.8661 52.4269 17.015C52.5872 17.1524 52.8506 17.2211 53.2171 17.2211H54.3337V19.2482H52.822C50.795 19.2482 49.7814 18.2633 49.7814 16.2935V11.707H48.6477V9.73147H49.7814V7.37807H52.2036V9.73147H54.3337V11.707H52.2036ZM64.9102 14.2837C64.9102 14.6272 64.8873 14.9365 64.8415 15.2113H57.8843C57.9416 15.8984 58.1821 16.4367 58.6058 16.826C59.0295 17.2154 59.5506 17.4101 60.169 17.4101C61.0623 17.4101 61.6979 17.0265 62.0758 16.2592H64.6697C64.3948 17.1753 63.868 17.9312 63.0893 18.5267C62.3105 19.1107 61.3543 19.4028 60.2205 19.4028C59.3044 19.4028 58.4798 19.2024 57.7469 18.8015C57.0254 18.3893 56.4585 17.8109 56.0462 17.0665C55.6454 16.3222 55.445 15.4632 55.445 14.4898C55.445 13.5049 55.6454 12.6403 56.0462 11.8959C56.4471 11.1515 57.0082 10.5789 57.7297 10.1781C58.4512 9.77728 59.2815 9.57687 60.2205 9.57687C61.1252 9.57687 61.9326 9.77155 62.6426 10.1609C63.3641 10.5503 63.9196 11.1057 64.3089 11.8272C64.7098 12.5372 64.9102 13.3561 64.9102 14.2837ZM62.4193 13.5966C62.4079 12.9781 62.1846 12.4857 61.7494 12.1192C61.3142 11.7413 60.7817 11.5524 60.1518 11.5524C59.5563 11.5524 59.0524 11.7356 58.6401 12.1021C58.2393 12.4571 57.9931 12.9552 57.9015 13.5966H62.4193ZM69.0705 11.2088C69.3797 10.7049 69.7805 10.3098 70.273 10.0235C70.7769 9.7372 71.3495 9.59405 71.9908 9.59405V12.1192H71.3552C70.5994 12.1192 70.0268 12.2967 69.6374 12.6518C69.2595 13.0068 69.0705 13.6252 69.0705 14.507V19.2482H66.6656V9.73147H69.0705V11.2088ZM73.0266 13.2358C73.0266 12.0562 73.29 11.0027 73.8168 10.075C74.355 9.13596 75.0822 8.40875 75.9984 7.89341C76.926 7.36661 77.9624 7.10322 79.1076 7.10322C80.4475 7.10322 81.6214 7.44678 82.6292 8.1339C83.6369 8.82103 84.3413 9.77155 84.7421 10.9855H81.9764C81.7015 10.4129 81.3122 9.98342 80.8083 9.69712C80.3158 9.41081 79.7432 9.26766 79.0905 9.26766C78.3919 9.26766 77.7677 9.43372 77.218 9.76583C76.6798 10.0865 76.2561 10.5446 75.9469 11.1401C75.6491 11.7356 75.5002 12.4342 75.5002 13.2358C75.5002 14.026 75.6491 14.7246 75.9469 15.3316C76.2561 15.9271 76.6798 16.3909 77.218 16.723C77.7677 17.0436 78.3919 17.204 79.0905 17.204C79.7432 17.204 80.3158 17.0608 80.8083 16.7745C81.3122 16.4768 81.7015 16.0416 81.9764 15.469H84.7421C84.3413 16.6944 83.6369 17.6506 82.6292 18.3377C81.6328 19.0134 80.459 19.3512 79.1076 19.3512C77.9624 19.3512 76.926 19.0936 75.9984 18.5782C75.0822 18.0514 74.355 17.3242 73.8168 16.3966C73.29 15.469 73.0266 14.4154 73.0266 13.2358ZM89.2011 6.53634V19.2482H86.7962V6.53634H89.2011ZM90.9588 14.4555C90.9588 13.4935 91.1478 12.6403 91.5257 11.8959C91.9151 11.1515 92.4361 10.5789 93.0889 10.1781C93.7531 9.77728 94.4918 9.57687 95.3049 9.57687C96.0149 9.57687 96.6333 9.72002 97.1601 10.0063C97.6984 10.2926 98.1278 10.6534 98.4485 11.0885V9.73147H100.871V19.2482H98.4485V17.8567C98.1393 18.3034 97.7098 18.6756 97.1601 18.9733C96.6219 19.2596 95.9977 19.4028 95.2877 19.4028C94.4861 19.4028 93.7531 19.1966 93.0889 18.7844C92.4361 18.3721 91.9151 17.7938 91.5257 17.0494C91.1478 16.2935 90.9588 15.4289 90.9588 14.4555ZM98.4485 14.4898C98.4485 13.9058 98.334 13.4076 98.1049 12.9953C97.8759 12.5716 97.5667 12.2509 97.1773 12.0333C96.7879 11.8043 96.3699 11.6898 95.9233 11.6898C95.4767 11.6898 95.0644 11.7986 94.6865 12.0162C94.3086 12.2338 93.9994 12.5544 93.7589 12.9781C93.5298 13.3904 93.4153 13.8829 93.4153 14.4555C93.4153 15.0281 93.5298 15.532 93.7589 15.9671C93.9994 16.3909 94.3086 16.7173 94.6865 16.9463C95.0759 17.1753 95.4881 17.2899 95.9233 17.2899C96.3699 17.2899 96.7879 17.1811 97.1773 16.9635C97.5667 16.7344 97.8759 16.4138 98.1049 16.0015C98.334 15.5778 98.4485 15.0739 98.4485 14.4898ZM106.861 19.4028C106.082 19.4028 105.384 19.2653 104.765 18.9905C104.147 18.7042 103.655 18.3205 103.288 17.8396C102.933 17.3586 102.738 16.826 102.704 16.242H105.126C105.172 16.6085 105.35 16.9119 105.659 17.1524C105.979 17.3929 106.375 17.5132 106.844 17.5132C107.302 17.5132 107.657 17.4216 107.909 17.2383C108.172 17.0551 108.304 16.8203 108.304 16.534C108.304 16.2248 108.144 15.9958 107.823 15.8469C107.514 15.6866 107.016 15.5148 106.329 15.3316C105.619 15.1598 105.035 14.9823 104.577 14.799C104.13 14.6158 103.741 14.3352 103.408 13.9573C103.088 13.5794 102.927 13.0698 102.927 12.4284C102.927 11.9016 103.076 11.4207 103.374 10.9855C103.683 10.5503 104.118 10.2067 104.68 9.95479C105.252 9.70284 105.922 9.57687 106.689 9.57687C107.823 9.57687 108.728 9.86317 109.404 10.4358C110.079 10.9969 110.451 11.7585 110.52 12.7205H108.218C108.184 12.3426 108.024 12.0448 107.737 11.8272C107.462 11.5982 107.09 11.4836 106.621 11.4836C106.186 11.4836 105.848 11.5638 105.607 11.7241C105.378 11.8845 105.264 12.1078 105.264 12.3941C105.264 12.7147 105.424 12.961 105.745 13.1327C106.065 13.2931 106.563 13.4591 107.239 13.6309C107.926 13.8027 108.493 13.9802 108.94 14.1634C109.386 14.3467 109.77 14.633 110.091 15.0223C110.423 15.4003 110.595 15.9042 110.606 16.534C110.606 17.0837 110.451 17.5762 110.142 18.0113C109.844 18.4465 109.409 18.7901 108.837 19.042C108.276 19.2825 107.617 19.4028 106.861 19.4028ZM116.222 19.4028C115.443 19.4028 114.745 19.2653 114.126 18.9905C113.508 18.7042 113.015 18.3205 112.649 17.8396C112.294 17.3586 112.099 16.826 112.065 16.242H114.487C114.533 16.6085 114.71 16.9119 115.02 17.1524C115.34 17.3929 115.735 17.5132 116.205 17.5132C116.663 17.5132 117.018 17.4216 117.27 17.2383C117.533 17.0551 117.665 16.8203 117.665 16.534C117.665 16.2248 117.505 15.9958 117.184 15.8469C116.875 15.6866 116.377 15.5148 115.689 15.3316C114.979 15.1598 114.395 14.9823 113.937 14.799C113.491 14.6158 113.101 14.3352 112.769 13.9573C112.449 13.5794 112.288 13.0698 112.288 12.4284C112.288 11.9016 112.437 11.4207 112.735 10.9855C113.044 10.5503 113.479 10.2067 114.04 9.95479C114.613 9.70284 115.283 9.57687 116.05 9.57687C117.184 9.57687 118.089 9.86317 118.764 10.4358C119.44 10.9969 119.812 11.7585 119.881 12.7205H117.579C117.545 12.3426 117.384 12.0448 117.098 11.8272C116.823 11.5982 116.451 11.4836 115.981 11.4836C115.546 11.4836 115.208 11.5638 114.968 11.7241C114.739 11.8845 114.624 12.1078 114.624 12.3941C114.624 12.7147 114.785 12.961 115.105 13.1327C115.426 13.2931 115.924 13.4591 116.6 13.6309C117.287 13.8027 117.854 13.9802 118.301 14.1634C118.747 14.3467 119.131 14.633 119.451 15.0223C119.784 15.4003 119.955 15.9042 119.967 16.534C119.967 17.0837 119.812 17.5762 119.503 18.0113C119.205 18.4465 118.77 18.7901 118.197 19.042C117.636 19.2825 116.978 19.4028 116.222 19.4028Z" fill="#5039D4"/>
</svg>
